<svg width="44" height="44" viewBox="0 0 44 44" fill="none" xmlns="http://www.w3.org/2000/svg">
<circle cx="22" cy="22" r="22" fill="white"/>
<path d="M13 19.057V26.5C13 27.2956 13.3161 28.0587 13.8787 28.6213C14.4413 29.1839 15.2044 29.5 16 29.5H28C28.7956 29.5 29.5587 29.1839 30.1213 28.6213C30.6839 28.0587 31 27.2956 31 26.5V17.5C31 16.7044 30.6839 15.9413 30.1213 15.3787C29.5587 14.8161 28.7956 14.5 28 14.5H16C15.2044 14.5 14.4413 14.8161 13.8787 15.3787C13.3161 15.9413 13 16.7044 13 17.5V19.057ZM16 16H28C28.3978 16 28.7794 16.158 29.0607 16.4393C29.342 16.7206 29.5 17.1022 29.5 17.5V18.61L22 22.648L14.5 18.61V17.5C14.5 17.1022 14.658 16.7206 14.9393 16.4393C15.2206 16.158 15.6022 16 16 16ZM14.5 20.314L21.6445 24.16C21.7538 24.2188 21.8759 24.2496 22 24.2496C22.1241 24.2496 22.2462 24.2188 22.3555 24.16L29.5 20.314V26.5C29.5 26.8978 29.342 27.2794 29.0607 27.5607C28.7794 27.842 28.3978 28 28 28H16C15.6022 28 15.2206 27.842 14.9393 27.5607C14.658 27.2794 14.5 26.8978 14.5 26.5V20.314Z" fill="#A0A3BD"/>
</svg>
