<svg width="55" height="55" viewBox="0 0 55 55" fill="none" xmlns="http://www.w3.org/2000/svg">
<rect y="-3.05176e-05" width="55" height="55" rx="27.5" fill="#E8E9FF"/>
<path d="M27.0199 35.53C24.6899 35.53 22.3599 35.16 20.1499 34.42C19.3099 34.13 18.6699 33.54 18.3899 32.77C18.0999 32 18.1999 31.15 18.6599 30.39L19.8099 28.48C20.0499 28.08 20.2699 27.28 20.2699 26.81V23.92C20.2699 20.2 23.2999 17.17 27.0199 17.17C30.7399 17.17 33.7699 20.2 33.7699 23.92V26.81C33.7699 27.27 33.9899 28.08 34.2299 28.49L35.3699 30.39C35.7999 31.11 35.8799 31.98 35.5899 32.77C35.2999 33.56 34.6699 34.16 33.8799 34.42C31.6799 35.16 29.3499 35.53 27.0199 35.53Z" fill="#7950F2"/>
<path d="M28.8796 18.9401C28.8096 18.9401 28.7396 18.9301 28.6696 18.9101C28.3796 18.8301 28.0996 18.7701 27.8296 18.7301C26.9796 18.6201 26.1596 18.6801 25.3896 18.9101C25.1096 19.0001 24.8096 18.9101 24.6196 18.7001C24.4296 18.4901 24.3696 18.1901 24.4796 17.9201C24.8896 16.8701 25.8896 16.1801 27.0296 16.1801C28.1696 16.1801 29.1696 16.8601 29.5796 17.9201C29.6796 18.1901 29.6296 18.4901 29.4396 18.7001C29.2896 18.8601 29.0796 18.9401 28.8796 18.9401Z" fill="#7950F2"/>
<path d="M27.0195 37.81C26.0295 37.81 25.0695 37.41 24.3695 36.71C23.6695 36.01 23.2695 35.05 23.2695 34.06H24.7695C24.7695 34.65 25.0095 35.23 25.4295 35.65C25.8495 36.07 26.4295 36.31 27.0195 36.31C28.2595 36.31 29.2695 35.3 29.2695 34.06H30.7695C30.7695 36.13 29.0895 37.81 27.0195 37.81Z" fill="#7950F2"/>
</svg>
