<svg width="24" height="24" viewBox="0 0 24 24" fill="none" xmlns="http://www.w3.org/2000/svg">
<path d="M6.87988 18.9C6.46988 18.9 6.12988 18.56 6.12988 18.15V16.08C6.12988 15.67 6.46988 15.33 6.87988 15.33C7.28988 15.33 7.62988 15.67 7.62988 16.08V18.15C7.62988 18.57 7.28988 18.9 6.87988 18.9Z" fill="#292D32"/>
<path d="M12 18.9C11.59 18.9 11.25 18.56 11.25 18.15V14C11.25 13.59 11.59 13.25 12 13.25C12.41 13.25 12.75 13.59 12.75 14V18.15C12.75 18.57 12.41 18.9 12 18.9Z" fill="#292D32"/>
<path d="M17.1201 18.9001C16.7101 18.9001 16.3701 18.5601 16.3701 18.1501V11.9301C16.3701 11.5201 16.7101 11.1801 17.1201 11.1801C17.5301 11.1801 17.8701 11.5201 17.8701 11.9301V18.1501C17.8701 18.5701 17.5401 18.9001 17.1201 18.9001Z" fill="#292D32"/>
<path d="M6.88007 13.18C6.54007 13.18 6.24007 12.95 6.15007 12.61C6.05007 12.21 6.29007 11.8 6.70007 11.7C10.3801 10.78 13.6201 8.77004 16.0901 5.90004L16.5501 5.36004C16.8201 5.05004 17.2901 5.01004 17.6101 5.28004C17.9201 5.55004 17.9601 6.02004 17.6901 6.34004L17.2301 6.88004C14.5601 10 11.0401 12.17 7.06007 13.16C7.00007 13.18 6.94007 13.18 6.88007 13.18Z" fill="#292D32"/>
<path d="M17.1199 9.51998C16.7099 9.51998 16.3699 9.17998 16.3699 8.76998V6.59998H14.1899C13.7799 6.59998 13.4399 6.25998 13.4399 5.84998C13.4399 5.43998 13.7799 5.09998 14.1899 5.09998H17.1199C17.5299 5.09998 17.8699 5.43998 17.8699 5.84998V8.77998C17.8699 9.18998 17.5399 9.51998 17.1199 9.51998Z" fill="#292D32"/>
<path d="M15 22.75H9C3.57 22.75 1.25 20.43 1.25 15V9C1.25 3.57 3.57 1.25 9 1.25H15C20.43 1.25 22.75 3.57 22.75 9V15C22.75 20.43 20.43 22.75 15 22.75ZM9 2.75C4.39 2.75 2.75 4.39 2.75 9V15C2.75 19.61 4.39 21.25 9 21.25H15C19.61 21.25 21.25 19.61 21.25 15V9C21.25 4.39 19.61 2.75 15 2.75H9Z" fill="#292D32"/>
</svg>
