<svg width="24" height="24" viewBox="0 0 24 24" fill="none" xmlns="http://www.w3.org/2000/svg">
<path d="M15 22.75H9C3.57 22.75 1.25 20.43 1.25 15V9C1.25 3.57 3.57 1.25 9 1.25H15C20.43 1.25 22.75 3.57 22.75 9V15C22.75 20.43 20.43 22.75 15 22.75ZM9 2.75C4.39 2.75 2.75 4.39 2.75 9V15C2.75 19.61 4.39 21.25 9 21.25H15C19.61 21.25 21.25 19.61 21.25 15V9C21.25 4.39 19.61 2.75 15 2.75H9Z" fill="#292D32"/>
<path d="M10.7601 16.3701C10.3401 16.3701 9.95009 16.27 9.60009 16.07C8.80009 15.61 8.34009 14.67 8.34009 13.48V10.52C8.34009 9.34005 8.80009 8.39005 9.60009 7.93005C10.4001 7.47005 11.4401 7.54005 12.4701 8.14005L15.0401 9.62005C16.0601 10.21 16.6501 11.08 16.6501 12C16.6501 12.92 16.0601 13.79 15.0401 14.38L12.4701 15.86C11.8901 16.2 11.3001 16.3701 10.7601 16.3701ZM10.7701 9.13005C10.6101 9.13005 10.4701 9.16005 10.3601 9.23005C10.0401 9.42005 9.85009 9.89005 9.85009 10.52V13.48C9.85009 14.11 10.0301 14.58 10.3601 14.77C10.6801 14.96 11.1801 14.88 11.7301 14.56L14.3001 13.08C14.8501 12.76 15.1601 12.37 15.1601 12C15.1601 11.63 14.8501 11.23 14.3001 10.92L11.7301 9.44005C11.3701 9.23005 11.0401 9.13005 10.7701 9.13005Z" fill="#292D32"/>
</svg>
